<?xml version="1.0" encoding="utf-8"?>
<svg xmlns="http://www.w3.org/2000/svg"
	xmlns:xlink="http://www.w3.org/1999/xlink"
	width="15px" height="15px" viewBox="0 0 15 15">
<path fillRule="evenodd" d="M 15.01 0.71C 15.01 0.71 8.21 7.51 8.21 7.51 8.21 7.51 14.35 13.65 14.35 13.65 14.35 13.65 13.65 14.35 13.65 14.35 13.65 14.35 7.51 8.21 7.51 8.21 7.51 8.21 0.71 15.01 0.71 15.01 0.71 15.01-0.01 14.29-0.01 14.29-0.01 14.29 6.79 7.49 6.79 7.49 6.79 7.49-0.35 0.35-0.35 0.35-0.35 0.35 0.35-0.35 0.35-0.35 0.35-0.35 7.49 6.79 7.49 6.79 7.49 6.79 14.29-0.01 14.29-0.01 14.29-0.01 15.01 0.71 15.01 0.71Z" fill="rgb(215,215,215)"/></svg>